<svg xmlns="http://www.w3.org/2000/svg" width="169.607" height="224.529" viewBox="0 0 169.607 224.529"><defs><style>.a{fill:#ff4e61;}.b{fill:#ffd02f;}.c{fill:#62d38f;}.d{fill:#fa0;}.e{fill:#2dc471;}.f{fill:#5c73bc;}</style></defs><g transform="translate(-615.955 -1071.048)"><path class="a" d="M196.546,116.514a2.287,2.287,0,0,1-1.64-3.88l2.844-2.93a2.287,2.287,0,1,1,3.282,3.186l-2.844,2.93A2.281,2.281,0,0,1,196.546,116.514Zm0,0" transform="translate(501.704 980.074)"/><path class="b" d="M177.52,206.266l-7.425,4.021a2.642,2.642,0,0,1-3.809-2.851l1.418-8.516a2.753,2.753,0,0,0-.754-2.393l-6.007-6.033a2.726,2.726,0,0,1,1.455-4.612l8.3-1.243a2.628,2.628,0,0,0,1.976-1.479l3.713-7.749a2.592,2.592,0,0,1,4.708,0l3.712,7.749a2.632,2.632,0,0,0,1.976,1.479l8.3,1.243a2.726,2.726,0,0,1,1.454,4.612l-6.006,6.033a2.753,2.753,0,0,0-.755,2.393l1.418,8.516a2.641,2.641,0,0,1-3.807,2.851l-7.425-4.021A2.554,2.554,0,0,0,177.52,206.266Zm0,0" transform="translate(528.832 965.965)"/><path class="c" d="M295.554,37.666a2.288,2.288,0,0,1-1.983-3.421L311.165,3.411a2.287,2.287,0,0,1,3.973,2.267L297.543,36.513A2.288,2.288,0,0,1,295.554,37.666Zm0,0" transform="translate(442.613 1068.791)"/><path class="d" d="M276.355,140.079a2.278,2.278,0,0,1-1.172-.324l-.03-.018a2.287,2.287,0,0,1,2.348-3.926l.03.018a2.287,2.287,0,0,1-1.176,4.25Zm0,0" transform="translate(455.893 976.786)"/><path class="e" d="M263.848,162a2.276,2.276,0,0,1-1.178-.329l-.03-.018A2.287,2.287,0,1,1,265,157.731l.03.018A2.287,2.287,0,0,1,263.848,162Zm0,0" transform="translate(464.53 961.651)"/><path class="a" d="M153.984,140.078a2.287,2.287,0,0,1-1.181-4.247l.031-.018a2.287,2.287,0,0,1,2.356,3.921l-.03.018A2.279,2.279,0,0,1,153.984,140.078Zm0,0" transform="translate(531.099 961.79)"/><path class="d" d="M166.491,162a2.288,2.288,0,0,1-1.188-4.244l.03-.018a2.288,2.288,0,1,1,2.371,3.913l-.03.018A2.276,2.276,0,0,1,166.491,162Zm0,0" transform="translate(522.461 946.655)"/><path class="b" d="M371.073,306.379l-4.8,3.59a1.856,1.856,0,0,1-2.947-1.6l.156-6.111a1.936,1.936,0,0,0-.764-1.6l-4.8-3.6a1.936,1.936,0,0,1,.564-3.382l5.69-1.736a1.885,1.885,0,0,0,1.238-1.242l1.837-5.813a1.835,1.835,0,0,1,3.3-.492l3.361,5.039a1.843,1.843,0,0,0,1.529.829l5.935,0a1.918,1.918,0,0,1,1.472,3.079l-3.613,4.849a1.961,1.961,0,0,0-.294,1.755l1.831,5.816a1.885,1.885,0,0,1-2.387,2.393l-5.594-2.041A1.812,1.812,0,0,0,371.073,306.379Zm0,0" transform="translate(400.641 870.951)"/><path class="b" d="M81.73,349.616l3.641,4.829a1.838,1.838,0,0,0,3.263-.689l1.5-5.914a1.894,1.894,0,0,1,1.166-1.314l5.582-2.075a1.937,1.937,0,0,0,.373-3.409l-4.994-3.3a1.932,1.932,0,0,1-.853-1.548l-.191-6.111a1.85,1.85,0,0,0-3.031-1.419L83.6,332.536a1.817,1.817,0,0,1-1.693.358l-5.7-1.7a1.89,1.89,0,0,0-2.247,2.532l2.156,5.7a1.962,1.962,0,0,1-.193,1.77l-3.332,5.058a1.913,1.913,0,0,0,1.644,2.984l5.924-.353A1.836,1.836,0,0,1,81.73,349.616Zm0,0" transform="translate(568.099 825.831)"/><path class="b" d="M241.529,41.787a6.14,6.14,0,1,0-6.138,6.324A6.233,6.233,0,0,0,241.529,41.787Zm0,0" transform="translate(471.825 1072.993)"/><g transform="translate(39.295 -86.721)"><path class="d" d="M108.3,247.136a1.74,1.74,0,0,1-1.245-2.956l.019-.019a1.74,1.74,0,1,1,2.489,2.432l-.018.019A1.737,1.737,0,0,1,108.3,247.136Zm0,0" transform="translate(528.75 1099.398)"/><path class="f" d="M125.752,265.113a1.739,1.739,0,0,1-1.248-2.951l.018-.02a1.74,1.74,0,0,1,2.5,2.424l-.019.019A1.735,1.735,0,0,1,125.752,265.113Zm0,0" transform="translate(515.405 1085.653)"/><path class="a" d="M96.27,477.8a1.74,1.74,0,0,1-1.248-2.952l2.162-2.228a1.74,1.74,0,0,1,2.5,2.423l-2.163,2.228A1.732,1.732,0,0,1,96.27,477.8Zm0,0" transform="translate(543.906 895.378)"/><path class="d" d="M408.152,445.231a1.739,1.739,0,0,1-1.248-2.951l2.163-2.229a1.74,1.74,0,1,1,2.5,2.423L409.4,444.7A1.735,1.735,0,0,1,408.152,445.231Zm0,0" transform="translate(305.428 925.716)"/><path class="f" d="M214.587,412.307a1.739,1.739,0,0,1-1.739-1.739V383.361a1.739,1.739,0,1,1,3.479,0v27.206A1.739,1.739,0,0,1,214.587,412.307Zm0,0" transform="translate(453.436 969.991)"/><path class="f" d="M214.556,346.117h-.027a1.74,1.74,0,1,1,0-3.48h.027a1.74,1.74,0,0,1,0,3.48Zm0,0" transform="translate(453.48 999.8)"/><path class="d" d="M214.556,320.694h-.035a1.739,1.739,0,0,1,.007-3.479h.035a1.739,1.739,0,0,1-.007,3.479Zm0,0" transform="translate(453.48 1019.239)"/><path class="a" d="M255.857,388.154a1.739,1.739,0,0,1-1.739-1.739c0-13.47,5.374-22.576,9.881-27.844a36.187,36.187,0,0,1,10-8.348,1.74,1.74,0,0,1,1.575,3.1,33.454,33.454,0,0,0-9.03,7.624c-5.937,6.995-8.947,15.562-8.947,25.465A1.739,1.739,0,0,1,255.857,388.154Zm0,0" transform="translate(421.879 994.143)"/><path class="d" d="M157.5,435.494a1.739,1.739,0,0,1-1.739-1.739,39.724,39.724,0,0,0-4.672-19.237,1.74,1.74,0,0,1,3.056-1.665,43.178,43.178,0,0,1,5.1,20.9A1.739,1.739,0,0,1,157.5,435.494Zm0,0" transform="translate(500.819 946.803)"/><path class="f" d="M342.746,431.188A4.67,4.67,0,1,0,338.079,436,4.74,4.74,0,0,0,342.746,431.188Zm0,0" transform="translate(361.248 935.767)"/><path class="c" d="M19.8,438.325a3.746,3.746,0,1,0-3.745,3.858A3.8,3.8,0,0,0,19.8,438.325Zm0,0" transform="translate(606.773 924.15)"/></g><path class="f" d="M408.7,83.645a2.287,2.287,0,0,1-1.641-3.88l2.844-2.93a2.287,2.287,0,0,1,3.283,3.186l-2.844,2.93A2.281,2.281,0,0,1,408.7,83.645Zm0,0" transform="translate(357.339 1029.193)"/><path class="d" d="M57.968,96.165a2.287,2.287,0,0,1-1.64-3.88l2.844-2.93a2.287,2.287,0,0,1,3.282,3.186l-2.844,2.93A2.281,2.281,0,0,1,57.968,96.165Zm0,0" transform="translate(595.974 1017.691)"/><path class="e" d="M7.206,262.076a2.287,2.287,0,0,1-1.64-3.88l2.843-2.93a2.287,2.287,0,1,1,3.283,3.186l-2.844,2.93A2.279,2.279,0,0,1,7.206,262.076Zm0,0" transform="translate(611.035 893.833)"/><path class="a" d="M27.338,164.242a2.281,2.281,0,0,1-1.641-.694L1.147,138.256a2.287,2.287,0,0,1,3.282-3.186l24.551,25.292a2.287,2.287,0,0,1-1.641,3.88Zm0,0" transform="translate(634.082 986.121)"/><path class="d" d="M108.848,248.237a2.288,2.288,0,0,1-1.637-3.886l.025-.025a2.287,2.287,0,0,1,3.272,3.2l-.024.025A2.284,2.284,0,0,1,108.848,248.237Zm0,0" transform="translate(560.838 910.668)"/><path class="f" d="M126.3,266.214a2.287,2.287,0,0,1-1.64-3.88l.024-.027a2.288,2.288,0,0,1,3.283,3.187l-.025.025A2.281,2.281,0,0,1,126.3,266.214Zm0,0" transform="translate(548.786 898.254)"/><path class="d" d="M348.14,161.336a2.287,2.287,0,0,1-1.64-3.88l24.55-25.29a2.287,2.287,0,0,1,3.283,3.186l-24.551,25.291A2.281,2.281,0,0,1,348.14,161.336Zm0,0" transform="translate(410.584 984.557)"/><path class="a" d="M321.363,245.335a2.277,2.277,0,0,1-1.63-.684l-.025-.025a2.287,2.287,0,0,1,3.262-3.207l.025.025a2.288,2.288,0,0,1-1.632,3.891Zm0,0" transform="translate(429.093 909.102)"/><path class="d" d="M303.914,263.312a2.281,2.281,0,0,1-1.641-.694l-.025-.025a2.288,2.288,0,0,1,3.283-3.187l.025.025a2.288,2.288,0,0,1-1.641,3.881Zm0,0" transform="translate(441.144 896.687)"/><path class="f" d="M95.584,37.665a2.286,2.286,0,0,1-1.989-1.154L76,5.677A2.287,2.287,0,0,1,79.973,3.41L97.568,34.244a2.287,2.287,0,0,1-1.983,3.422Zm0,0" transform="translate(582.151 1077.36)"/><path class="f" d="M66.2,277.035a4.925,4.925,0,1,0-4.923,5.072A5,5,0,0,0,66.2,277.035Zm0,0" transform="translate(568.374 884.679)"/><path class="a" d="M188.868,5.072a4.925,4.925,0,1,0-9.845,0,4.925,4.925,0,1,0,9.845,0Zm0,0" transform="translate(510.798 1078.918)"/><path class="a" d="M343.252,141.564a4.925,4.925,0,1,0-4.923,5.07A5,5,0,0,0,343.252,141.564Zm0,0" transform="translate(407.755 987.516)"/><path class="a" d="M134.852,16a2.287,2.287,0,0,1-1.641-3.88l2.844-2.93a2.287,2.287,0,1,1,3.282,3.186l-2.843,2.93A2.283,2.283,0,0,1,134.852,16Zm0,0" transform="translate(542.881 1073.052)"/></g></svg>